<svg xmlns="http://www.w3.org/2000/svg" xmlns:xlink="http://www.w3.org/1999/xlink" width="1080" zoomAndPan="magnify" viewBox="0 0 810 809.999993" height="1080" preserveAspectRatio="xMidYMid meet" version="1.0"><defs><clipPath id="ae85128f09"><path d="M 405 0 C 181.324219 0 0 181.324219 0 405 C 0 628.675781 181.324219 810 405 810 C 628.675781 810 810 628.675781 810 405 C 810 181.324219 628.675781 0 405 0 Z M 405 0 " clip-rule="nonzero"/></clipPath><clipPath id="319b7217cd"><path d="M 0 0 L 810 0 L 810 810 L 0 810 Z M 0 0 " clip-rule="nonzero"/></clipPath><clipPath id="458c070225"><path d="M 405 0 C 181.324219 0 0 181.324219 0 405 C 0 628.675781 181.324219 810 405 810 C 628.675781 810 810 628.675781 810 405 C 810 181.324219 628.675781 0 405 0 Z M 405 0 " clip-rule="nonzero"/></clipPath><clipPath id="0a9c4c1635"><rect x="0" width="810" y="0" height="810"/></clipPath></defs><g clip-path="url(#ae85128f09)"><g transform="matrix(1, 0, 0, 1, 0, 0.000000000000039746)"><g clip-path="url(#0a9c4c1635)"><g clip-path="url(#319b7217cd)"><g clip-path="url(#458c070225)"><rect x="-178.2" width="1166.4" fill="#000000" height="1166.39999" y="-178.199998" fill-opacity="1"/></g></g></g></g></g><path fill="#e4e2dd" d="M 715.632812 252.925781 L 704.9375 252.925781 L 704.9375 206.621094 C 704.9375 199.242188 698.957031 193.257812 691.570312 193.257812 L 349.527344 193.257812 L 320.816406 165.132812 C 310.144531 154.667969 296.03125 148.90625 281.078125 148.90625 L 137.78125 148.90625 C 106.472656 148.902344 81 174.375 81 205.6875 L 81 581.148438 C 81 625.234375 116.867188 661.097656 160.945312 661.097656 L 649.039062 661.097656 C 693.128906 661.097656 729 625.234375 729 581.148438 L 729 266.292969 C 729 258.910156 723.015625 252.925781 715.632812 252.925781 Z M 678.207031 219.988281 L 678.207031 252.925781 L 410.445312 252.925781 L 376.820312 219.988281 Z M 649.039062 634.363281 L 160.945312 634.363281 C 131.605469 634.363281 107.734375 610.492188 107.734375 581.148438 L 107.734375 205.6875 C 107.734375 189.117188 121.214844 175.636719 137.78125 175.636719 L 281.074219 175.636719 C 288.988281 175.636719 296.453125 178.6875 302.101562 184.226562 L 372.242188 252.929688 L 320.566406 252.929688 C 313.183594 252.929688 307.199219 258.914062 307.199219 266.296875 C 307.199219 273.675781 313.183594 279.664062 320.566406 279.664062 L 702.265625 279.660156 L 702.265625 581.148438 C 702.265625 610.492188 678.390625 634.363281 649.039062 634.363281 Z M 649.039062 634.363281 " fill-opacity="1" fill-rule="nonzero"/><path fill="#e4e2dd" d="M 448.136719 417.933594 C 449.054688 414.511719 448.574219 410.863281 446.800781 407.792969 L 420.066406 361.488281 C 418.296875 358.417969 415.375 356.175781 411.949219 355.257812 C 408.523438 354.339844 404.878906 354.820312 401.808594 356.59375 L 386.304688 365.542969 C 378.480469 359.4375 369.824219 354.425781 360.667969 350.699219 L 360.667969 332.839844 C 360.667969 325.460938 354.683594 319.476562 347.300781 319.476562 L 293.832031 319.476562 C 286.453125 319.476562 280.46875 325.460938 280.46875 332.839844 L 280.46875 350.699219 C 271.3125 354.421875 262.65625 359.4375 254.832031 365.542969 L 239.328125 356.59375 C 236.257812 354.820312 232.613281 354.339844 229.1875 355.257812 C 225.761719 356.175781 222.84375 358.417969 221.070312 361.488281 L 194.335938 407.792969 C 192.5625 410.863281 192.082031 414.511719 193 417.933594 C 193.917969 421.359375 196.15625 424.277344 199.230469 426.050781 L 214.679688 434.972656 C 213.984375 439.898438 213.636719 444.859375 213.636719 449.804688 C 213.636719 454.746094 213.984375 459.707031 214.679688 464.636719 L 199.230469 473.554688 C 196.160156 475.328125 193.917969 478.246094 193 481.671875 C 192.082031 485.097656 192.5625 488.746094 194.335938 491.816406 L 221.070312 538.121094 C 222.839844 541.191406 225.761719 543.429688 229.1875 544.347656 C 232.613281 545.269531 236.257812 544.785156 239.328125 543.015625 L 254.832031 534.0625 C 262.65625 540.167969 271.3125 545.183594 280.46875 548.90625 L 280.46875 566.765625 C 280.46875 574.144531 286.453125 580.132812 293.832031 580.132812 L 347.300781 580.132812 C 354.683594 580.132812 360.667969 574.148438 360.667969 566.765625 L 360.667969 548.90625 C 369.824219 545.183594 378.480469 540.167969 386.304688 534.0625 L 401.808594 543.015625 C 404.878906 544.785156 408.527344 545.269531 411.949219 544.347656 C 415.375 543.429688 418.296875 541.191406 420.066406 538.121094 L 446.800781 491.816406 C 448.574219 488.746094 449.054688 485.097656 448.136719 481.671875 C 447.21875 478.246094 444.980469 475.328125 441.90625 473.554688 L 426.457031 464.636719 C 427.152344 459.707031 427.503906 454.746094 427.503906 449.804688 C 427.503906 444.859375 427.152344 439.902344 426.457031 434.972656 L 441.90625 426.050781 C 444.980469 424.277344 447.21875 421.359375 448.136719 417.933594 Z M 398.570312 431.226562 C 400.03125 437.347656 400.769531 443.601562 400.769531 449.800781 C 400.769531 456.007812 400.03125 462.253906 398.570312 468.378906 C 397.203125 474.128906 399.773438 480.097656 404.890625 483.050781 L 416.964844 490.023438 L 403.597656 513.175781 L 391.476562 506.175781 C 386.355469 503.21875 379.902344 503.980469 375.605469 508.039062 C 366.496094 516.65625 355.382812 523.09375 343.472656 526.652344 C 337.8125 528.34375 333.933594 533.550781 333.933594 539.457031 L 333.933594 553.394531 L 307.199219 553.394531 L 307.199219 539.457031 C 307.199219 533.550781 303.320312 528.34375 297.65625 526.652344 C 285.746094 523.09375 274.636719 516.65625 265.523438 508.039062 C 261.230469 503.976562 254.773438 503.21875 249.65625 506.175781 L 237.535156 513.175781 L 224.167969 490.023438 L 236.242188 483.050781 C 241.359375 480.097656 243.929688 474.128906 242.558594 468.378906 C 241.101562 462.253906 240.363281 456.003906 240.363281 449.800781 C 240.363281 443.597656 241.101562 437.347656 242.558594 431.226562 C 243.929688 425.476562 241.359375 419.507812 236.242188 416.554688 L 224.167969 409.582031 L 237.535156 386.429688 L 249.65625 393.429688 C 254.777344 396.386719 261.230469 395.625 265.523438 391.5625 C 274.636719 382.945312 285.75 376.511719 297.65625 372.953125 C 303.320312 371.261719 307.199219 366.054688 307.199219 360.144531 L 307.199219 346.207031 L 333.933594 346.207031 L 333.933594 360.144531 C 333.933594 366.054688 337.8125 371.261719 343.472656 372.953125 C 355.382812 376.507812 366.496094 382.945312 375.605469 391.5625 C 379.902344 395.625 386.355469 396.382812 391.476562 393.429688 L 403.597656 386.429688 L 416.964844 409.582031 L 404.890625 416.554688 C 399.773438 419.507812 397.203125 425.476562 398.570312 431.226562 Z M 398.570312 431.226562 " fill-opacity="1" fill-rule="nonzero"/><path fill="#e4e2dd" d="M 320.570312 396.335938 C 291.085938 396.335938 267.101562 420.320312 267.101562 449.804688 C 267.101562 479.285156 291.085938 503.269531 320.570312 503.269531 C 350.050781 503.269531 374.035156 479.285156 374.035156 449.804688 C 374.035156 420.320312 350.050781 396.335938 320.570312 396.335938 Z M 320.570312 476.535156 C 305.828125 476.535156 293.835938 464.542969 293.835938 449.804688 C 293.835938 435.0625 305.828125 423.070312 320.570312 423.070312 C 335.308594 423.070312 347.300781 435.0625 347.300781 449.804688 C 347.300781 464.542969 335.308594 476.535156 320.570312 476.535156 Z M 320.570312 476.535156 " fill-opacity="1" fill-rule="nonzero"/><path fill="#e4e2dd" d="M 605.855469 529.335938 L 597.886719 529.335938 C 596.957031 526.234375 595.726562 523.257812 594.207031 520.457031 L 599.84375 514.820312 C 605.0625 509.601562 605.0625 501.136719 599.84375 495.914062 C 594.625 490.695312 586.160156 490.695312 580.941406 495.914062 L 575.300781 501.554688 C 572.5 500.035156 569.527344 498.800781 566.425781 497.871094 L 566.425781 489.902344 C 566.425781 482.519531 560.441406 476.535156 553.058594 476.535156 C 545.675781 476.535156 539.691406 482.519531 539.691406 489.902344 L 539.691406 497.871094 C 536.585938 498.800781 533.613281 500.035156 530.8125 501.554688 L 525.175781 495.914062 C 519.957031 490.695312 511.492188 490.695312 506.269531 495.914062 C 501.050781 501.132812 501.050781 509.597656 506.269531 514.820312 L 511.910156 520.457031 C 510.390625 523.257812 509.15625 526.230469 508.226562 529.335938 L 500.257812 529.335938 C 492.875 529.335938 486.890625 535.320312 486.890625 542.703125 C 486.890625 550.085938 492.875 556.070312 500.257812 556.070312 L 508.230469 556.070312 C 509.160156 559.171875 510.390625 562.148438 511.910156 564.949219 L 506.273438 570.585938 C 501.054688 575.804688 501.054688 584.269531 506.273438 589.492188 C 508.882812 592.101562 512.304688 593.40625 515.722656 593.40625 C 519.144531 593.40625 522.566406 592.101562 525.175781 589.492188 L 530.8125 583.851562 C 533.613281 585.371094 536.589844 586.605469 539.691406 587.535156 L 539.691406 595.503906 C 539.691406 602.886719 545.675781 608.871094 553.058594 608.871094 C 560.441406 608.871094 566.425781 602.886719 566.425781 595.503906 L 566.425781 587.535156 C 569.53125 586.605469 572.503906 585.371094 575.300781 583.851562 L 580.941406 589.492188 C 583.550781 592.101562 586.972656 593.40625 590.390625 593.40625 C 593.8125 593.40625 597.234375 592.101562 599.84375 589.492188 C 605.0625 584.273438 605.0625 575.808594 599.84375 570.585938 L 594.207031 564.949219 C 595.722656 562.148438 596.957031 559.175781 597.886719 556.070312 L 605.855469 556.070312 C 613.238281 556.070312 619.222656 550.085938 619.222656 542.703125 C 619.226562 535.320312 613.238281 529.335938 605.855469 529.335938 Z M 553.0625 562.753906 C 542.007812 562.753906 533.011719 553.757812 533.011719 542.703125 C 533.011719 531.648438 542.007812 522.652344 553.0625 522.652344 C 564.117188 522.652344 573.113281 531.648438 573.113281 542.703125 C 573.113281 553.757812 564.117188 562.753906 553.0625 562.753906 Z M 553.0625 562.753906 " fill-opacity="1" fill-rule="nonzero"/><path fill="#e4e2dd" d="M 256.425781 279.664062 L 257.761719 279.664062 C 265.144531 279.664062 271.132812 273.675781 271.132812 266.296875 C 271.132812 258.914062 265.148438 252.929688 257.761719 252.929688 L 256.425781 252.929688 C 249.042969 252.929688 243.0625 258.914062 243.0625 266.296875 C 243.0625 273.675781 249.042969 279.664062 256.425781 279.664062 Z M 256.425781 279.664062 " fill-opacity="1" fill-rule="nonzero"/></svg>